<svg width="108" height="81" viewBox="0 0 108 81" fill="none" xmlns="http://www.w3.org/2000/svg">
<path d="M27.0193 43.0185C27.0193 43.0185 27.7594 40.4095 31.312 39.5895C29.9609 36.7961 29.2046 33.7491 29.0917 30.644C25.6131 36.1604 27.0193 43.0185 27.0193 43.0185Z" fill="url(#paint0_linear_2004_23150)"/>
<path d="M41.3037 58.5992C37.9732 50.0265 43.154 49.6537 43.154 49.6537C50.7032 49.3555 52.7755 43.3174 52.7755 43.3174C52.7755 43.3174 50.1851 49.7283 40.2676 48.9828C35.1608 48.6101 32.9404 53.4555 32.9404 53.4555C32.9404 53.4555 34.4207 51.9646 35.9009 52.3374C35.9009 52.3374 32.5334 54.9464 34.4207 61.6555C35.9009 66.8737 31.4602 72.8373 31.4602 72.8373C31.4602 72.8373 38.2323 71.9055 42.4509 70.34L42.784 68.29C43.043 65.9419 42.895 62.6246 41.3037 58.5992Z" fill="url(#paint1_linear_2004_23150)"/>
<path d="M36.4928 17.0029C16.5837 17.3011 0.338179 33.6265 0.00512673 53.6792C-0.151587 63.1612 3.28962 72.3461 9.62663 79.36C11.0329 78.2046 21.6165 68.8864 22.0606 50.7719C22.4306 36.2356 29.0917 30.6447 29.0917 30.6447C29.2046 33.7498 29.9609 36.7968 31.312 39.5901C34.8646 38.7701 39.8233 39.5901 39.8233 39.5901C39.8233 39.5901 40.1934 41.4538 41.6736 42.1992C43.1539 42.9447 49.4449 43.6901 52.7754 43.3174C52.7754 43.3174 50.703 49.3556 43.1539 49.6537C43.1539 49.6537 37.9731 50.0265 41.3036 58.5992C43.4129 64.0037 43.0058 68.0291 42.4508 70.34C44.3381 69.8555 45.0042 70.1537 45.0042 70.1537C44.079 70.4891 44.153 70.5637 43.2649 71.1973C44.7749 71.4908 46.3371 71.3372 47.7623 70.755C49.1874 70.1729 50.4146 69.1872 51.2951 67.9173C52.1988 66.5685 52.6816 64.9785 52.6816 63.3514C52.6816 61.7243 52.1988 60.1343 51.2951 58.7855C50.4611 57.4722 49.228 56.4655 47.7796 55.9155C50.5046 56.5659 53.0637 57.7849 55.2918 59.4937C58.4972 61.9447 60.9201 65.2873 62.2616 69.109C63.6031 72.9307 63.8045 77.0644 62.8409 81C68.1368 75.7898 71.7612 69.101 73.2466 61.7962C74.7321 54.4915 74.0104 46.906 71.1747 40.0184C68.339 33.1307 63.5193 27.2568 57.3375 23.1545C51.1557 19.0521 43.8952 16.9095 36.4928 17.0029ZM34.2355 37.8756C34.9415 35.2885 36.493 33.0168 38.6392 31.4274C38.6392 31.4274 37.9361 34.2601 39.5643 38.0992C37.8169 37.6945 36.0103 37.6186 34.2355 37.8756Z" fill="#1F1F1F"/>
<path d="M35.1605 42.2743C35.1605 42.2743 36.6407 41.5288 38.491 43.0197C38.491 43.0197 37.0108 43.7652 36.2707 43.3924C36.0203 43.2912 35.7928 43.1399 35.602 42.9478C35.4112 42.7556 35.261 42.5265 35.1605 42.2743Z" fill="#0F0F0F"/>
<path d="M55.2918 59.4942C53.0638 57.7854 50.5046 56.5664 47.7797 55.916C47.7797 55.916 59.5845 59.4196 49.963 79.9196L62.841 81.0005C63.8046 77.0649 63.6032 72.9312 62.2617 69.1095C60.9202 65.2878 58.4973 61.9452 55.2918 59.4942Z" fill="url(#paint2_linear_2004_23150)"/>
<path fill-rule="evenodd" clip-rule="evenodd" d="M52 0C49.7909 0 48 1.79086 48 4V22C48 24.2091 49.7909 26 52 26H55.0625L52.7583 33.9001C52.4982 34.792 53.4887 35.5256 54.266 35.0168L68.0417 26H104C106.209 26 108 24.2091 108 22V4C108 1.79086 106.209 0 104 0H52Z" fill="#563BFF"/>
<defs>
<linearGradient id="paint0_linear_2004_23150" x1="30.9086" y1="31.4379" x2="27.7959" y2="42.5933" gradientUnits="userSpaceOnUse">
<stop stop-color="#1F1F1F"/>
<stop offset="0.822917" stop-color="white" stop-opacity="0"/>
</linearGradient>
<linearGradient id="paint1_linear_2004_23150" x1="39.5719" y1="73.907" x2="43.4114" y2="44.6103" gradientUnits="userSpaceOnUse">
<stop offset="0.25" stop-color="white" stop-opacity="0"/>
<stop offset="1" stop-color="#1F1F1F"/>
</linearGradient>
<linearGradient id="paint2_linear_2004_23150" x1="58.763" y1="56.3074" x2="51.0117" y2="83.1179" gradientUnits="userSpaceOnUse">
<stop stop-color="#313131" stop-opacity="0.9375"/>
<stop offset="0.692708" stop-color="white" stop-opacity="0.2"/>
</linearGradient>
</defs>
</svg>
